<svg id="Layer_1" data-name="Layer 1" xmlns="http://www.w3.org/2000/svg" viewBox="0 0 512 512"><defs><style>.cls-1{fill:#f5ceb7;}.cls-2{fill:#908fe2;}.cls-3{fill:#f44747;}.cls-4{fill:#141f38;}</style></defs><title>diary-filled</title><rect class="cls-1" x="76.8" y="64" width="358.4" height="435.2" rx="51.2" ry="51.2"/><path class="cls-2" d="M196.74,89.6A17.56,17.56,0,0,1,179.2,72.06V55.94A17.56,17.56,0,0,1,196.74,38.4h22.35l3.7-6.38a38.32,38.32,0,0,1,66.44,0l3.7,6.38h22.35A17.56,17.56,0,0,1,332.8,55.94V72.06A17.56,17.56,0,0,1,315.26,89.6Z"/><rect class="cls-3" x="140.8" y="166.4" width="102.4" height="102.4" rx="19.2" ry="19.2"/><path class="cls-4" d="M160,281.6h64a32,32,0,0,0,32-32v-64a32,32,0,0,0-32-32H160a32,32,0,0,0-32,32v64A32,32,0,0,0,160,281.6Zm-6.4-96a6.41,6.41,0,0,1,6.4-6.4h64a6.41,6.41,0,0,1,6.4,6.4v64A6.41,6.41,0,0,1,224,256H160a6.41,6.41,0,0,1-6.4-6.4ZM384,166.4a12.8,12.8,0,0,1-12.8,12.8h-64a12.8,12.8,0,0,1,0-25.6h64A12.8,12.8,0,0,1,384,166.4Zm0,51.2a12.8,12.8,0,0,1-12.8,12.8h-64a12.8,12.8,0,0,1,0-25.6h64A12.8,12.8,0,0,1,384,217.6Zm0,51.2a12.8,12.8,0,0,1-12.8,12.8h-64a12.8,12.8,0,0,1,0-25.6h64A12.8,12.8,0,0,1,384,268.8Zm0,51.2a12.8,12.8,0,0,1-12.8,12.8H140.8a12.8,12.8,0,0,1,0-25.6H371.2A12.8,12.8,0,0,1,384,320Zm0,51.2A12.8,12.8,0,0,1,371.2,384H140.8a12.8,12.8,0,0,1,0-25.6H371.2A12.8,12.8,0,0,1,384,371.2Zm0,51.2a12.8,12.8,0,0,1-12.8,12.8H140.8a12.8,12.8,0,0,1,0-25.6H371.2A12.8,12.8,0,0,1,384,422.4Zm0-371.2H345.23a30.34,30.34,0,0,0-30-25.6h-15a51.12,51.12,0,0,0-88.59,0h-15a30.34,30.34,0,0,0-30,25.6H128a64,64,0,0,0-64,64V448a64,64,0,0,0,64,64H384a64,64,0,0,0,64-64V115.2A64,64,0,0,0,384,51.2ZM192,55.94a4.74,4.74,0,0,1,4.74-4.74h29.73l7.4-12.77a25.52,25.52,0,0,1,44.28,0l7.4,12.77h29.73A4.74,4.74,0,0,1,320,55.94V72.06a4.74,4.74,0,0,1-4.74,4.74H196.74A4.74,4.74,0,0,1,192,72.06ZM422.4,448A38.44,38.44,0,0,1,384,486.4H128A38.44,38.44,0,0,1,89.6,448V115.2A38.44,38.44,0,0,1,128,76.8h38.77a30.34,30.34,0,0,0,30,25.6H315.26a30.34,30.34,0,0,0,30-25.6H384a38.44,38.44,0,0,1,38.4,38.4Z"/></svg>