<?xml version="1.0" ?><!DOCTYPE svg  PUBLIC '-//W3C//DTD SVG 1.1//EN'  'http://www.w3.org/Graphics/SVG/1.1/DTD/svg11.dtd'><svg enable-background="new 0 0 64 64" height="64px" version="1.1" viewBox="0 0 64 64" width="64px" xml:space="preserve" xmlns="http://www.w3.org/2000/svg" xmlns:xlink="http://www.w3.org/1999/xlink"><g id="medical_records"><g id="clipboard"><g id="planchette_1_"><g id="XMLID_829_"><g id="XMLID_830_"><g id="XMLID_831_"><g id="XMLID_832_"><path d="M8,58c-0.827,0-0.5,0.327-0.5-0.5V11c0-0.827,0.673-1.5,1.5-1.5h36         c0.827,0,1.5,0.673,1.5,1.5v46.5c0,0.827-0.673,0.5-1.5,0.5H8z" fill="#18FFFF" id="XMLID_833_"/></g></g></g></g><g id="XMLID_834_"><g id="XMLID_835_"><g id="XMLID_836_"><polygon fill="#FFFFFF" id="XMLID_837_" points="21,55 11,45 11,13 43,13 43,55       "/></g></g></g><g id="XMLID_838_"><g id="XMLID_839_"><g id="XMLID_840_"><polygon fill="#ECEFF1" id="XMLID_841_" points="32,56 21,56 21,45       "/></g></g></g><g id="XMLID_842_"><g id="XMLID_843_"><g id="XMLID_844_"><g id="XMLID_845_"><polygon fill="#84FFFF" id="XMLID_855_" points="11.207,45.707 20.5,45.707 20.5,55        "/></g></g></g></g><g id="XMLID_856_"><g id="XMLID_857_"><g id="XMLID_876_"><path d="M38.025,12.658C37.819,12.041,36.873,11.5,36,11.5h-4.5v-2h-0.862l-0.149-0.174        c-0.253-0.293-0.47-0.496-0.65-0.664C29.394,8.247,29.042,7.918,29,7c0-1.103-0.897-2-2-2s-2,0.897-2.005,1.93l0.009,0.061        l-0.003,0.052c-0.043,0.875-0.395,1.203-0.839,1.619c-0.181,0.168-0.397,0.371-0.65,0.664L23.362,9.5H22.5v2H18        c-0.873,0-1.819,0.541-2.025,1.158c-0.161,0.483-0.308,1.296-0.395,1.842h22.811L38.025,12.658z M27,9c-1.105,0-2-0.896-2-2        s0.895-2,2-2s2,0.896,2,2S28.105,9,27,9z" fill="#ECEFF1" id="XMLID_877_"/></g></g></g><g id="XMLID_884_"><g id="XMLID_885_"><g id="XMLID_886_"><path d="M22,9v2h-4c-0.869,0-1.741,0.419-2.211,1H10v33l11,11h23V12h-5.789        c-0.47-0.581-1.342-1-2.211-1h-4V9h-1.133c-0.855-0.993-1.32-1.002-1.369-1.981C29.498,7.013,29.5,7.006,29.5,7        c0-1.378-1.121-2.5-2.5-2.5c-1.236,0-2.258,0.904-2.458,2.083C24.52,6.72,24.5,6.857,24.5,7c0,0.006,0.002,0.013,0.002,0.019        C24.453,7.998,23.988,8.007,23.133,9H22z M20,53.586L12.414,46H20V53.586z M38.6,13H43v42H21V45H11V13h4.362        C15.153,13.864,15,15,15,15h24L38.6,13z M25.502,6.985c0-0.058,0.01-0.114,0.017-0.17c0.007-0.047,0.009-0.094,0.02-0.14        h-0.001C25.688,6.004,26.285,5.5,27,5.5c0.813,0,1.472,0.649,1.496,1.456l-0.002,0.008l0.003,0.064        C28.481,7.842,27.817,8.5,27,8.5c-0.82,0-1.488-0.663-1.498-1.481V6.985z M23,10h0.591l0.3-0.347        c0.232-0.27,0.435-0.459,0.612-0.625c0.175-0.163,0.351-0.328,0.507-0.531C25.467,9.102,26.185,9.5,27,9.5        c0.814,0,1.533-0.397,1.989-1.002c0.155,0.201,0.333,0.366,0.508,0.53c0.178,0.167,0.38,0.355,0.612,0.625l0.3,0.347H31v2h5        c0.737,0,1.388,0.452,1.535,0.776L37.78,14H16.173c0.08-0.437,0.178-0.889,0.275-1.184C16.557,12.492,17.231,12,18,12h5V10z" fill="#37474F" id="XMLID_887_"/></g></g><g id="XMLID_905_"><g id="XMLID_906_"><path d="M45,9H33v1h12c0.552,0,1,0.449,1,1v46c0,0.551-0.448,1-1,1H9c-0.552,0-1-0.449-1-1V11        c0-0.551,0.448-1,1-1h12V9H9c-1.1,0-2,0.9-2,2v46c0,1.1,0.9,2,2,2h36c1.1,0,2-0.9,2-2V11C47,9.9,46.1,9,45,9z" fill="#37474F" id="XMLID_907_"/></g></g></g></g></g><g id="Document"><g id="XMLID_828_"><g id="XMLID_908_"><g id="XMLID_909_"><g id="XMLID_910_"><g id="XMLID_911_"><path d="M55.103,9.367L49,9v40.93V50h6V12h1v17l1,1V12C57,10.896,56.15,9.717,55.103,9.367z" fill="#37474F" id="XMLID_912_"/></g></g></g><g id="XMLID_913_"><g id="XMLID_914_"><g id="XMLID_915_"><polygon fill="#FFFFFF" id="XMLID_916_" points="54.875,10.222 49.125,8.938 49.125,48.995 49.125,49.063 54.875,49.063                 "/></g></g></g><g id="XMLID_917_"><g id="XMLID_918_"><g id="XMLID_919_"><polygon fill="#FF5252" id="XMLID_920_" points="51,10 51,50 54.563,50 54.652,10.816        "/></g></g></g><g id="XMLID_921_"><g id="XMLID_922_"><g id="XMLID_923_"><rect fill="#37474F" height="1" id="XMLID_924_" width="6" x="49" y="28"/></g></g></g><g id="XMLID_925_"><g id="XMLID_926_"><g id="XMLID_927_"><path d="M50,9.248l4,0.894V12v19v18h-4V9.248L50,9.248z M49,8v41.93V50h6V31V12V9.34L49,8         L49,8z" fill="#37474F" id="XMLID_928_"/></g></g></g><g id="XMLID_931_"><g id="XMLID_932_"><g id="XMLID_933_"><g id="XMLID_934_"><polygon fill="#F0F2F4" id="XMLID_935_" points="49.5,49.919 49.5,49.5 54.5,49.5 54.5,49.919 52,57.419         "/></g></g></g><g id="XMLID_936_"><g id="XMLID_937_"><g id="XMLID_938_"><path d="M53.945,50L52,55.838L50.055,50H53.945L53.945,50z M55,49h-6v1l3,9l3-9V49L55,49z" fill="#37474F" id="XMLID_939_"/></g></g></g></g></g></g></g><g id="XMLID_827_"><g id="XMLID_942_"><g id="XMLID_943_"><circle cx="34.5" cy="21.5" fill="#FF8A80" id="XMLID_944_" r="4"/></g><g id="XMLID_945_"><path d="M34.5,26c-2.481,0-4.5-2.019-4.5-4.5s2.019-4.5,4.5-4.5s4.5,2.019,4.5,4.5      S36.981,26,34.5,26z M34.5,18c-1.93,0-3.5,1.57-3.5,3.5s1.57,3.5,3.5,3.5s3.5-1.57,3.5-3.5S36.43,18,34.5,18z" fill="#37474F" id="XMLID_946_"/></g></g><g id="XMLID_949_"><g id="XMLID_950_"><rect fill="#37474F" height="5" id="XMLID_951_" width="1" x="34" y="19"/></g></g><g id="XMLID_952_"><g id="XMLID_953_"><rect fill="#37474F" height="1" id="XMLID_954_" width="5" x="32" y="21"/></g></g></g><g id="XMLID_958_"><g id="XMLID_959_"><g id="XMLID_960_"><rect fill="#37474F" height="1" id="XMLID_961_" width="17" x="23" y="31"/></g></g><g id="XMLID_962_"><g id="XMLID_963_"><rect fill="#37474F" height="1" id="XMLID_964_" width="17" x="23" y="28"/></g></g><g id="XMLID_965_"><polygon fill="#37474F" id="XMLID_966_" points="20,38.477 20,43 14,43 14,37 17.709,37 18.281,36 13,36 13,44 21,44 21,36.73         "/></g><g id="XMLID_967_"><polygon fill="#FF5722" id="XMLID_968_" points="17.033,41.951 14.584,38.277 15.416,37.723 16.967,40.049 20.566,33.752      21.434,34.248    "/></g><g id="XMLID_969_"><polygon fill="#37474F" id="XMLID_970_" points="20,26.477 20,31 14,31 14,25 17.709,25 18.281,24 13,24 13,32 21,32 21,24.73         "/></g><g id="XMLID_971_"><polygon fill="#FF5722" id="XMLID_972_" points="17.033,29.951 14.584,26.277 15.416,25.723 16.967,28.049 20.566,21.752      21.434,22.248    "/></g></g><g id="XMLID_973_"><g id="XMLID_974_"><g id="XMLID_975_"><rect fill="#37474F" height="1" id="XMLID_976_" width="17" x="23" y="43"/></g></g><g id="XMLID_977_"><g id="XMLID_978_"><rect fill="#37474F" height="1" id="XMLID_979_" width="17" x="23" y="40"/></g></g></g></g></svg>